<?xml version="1.0" encoding="UTF-8"?>
<svg id="Lager_1" data-name="Lager 1" xmlns="http://www.w3.org/2000/svg" viewBox="0 0 243.2 260.01">
  <path d="M243.2,95.51c-.1-16.4-5.7-32.4-16.1-45.1,3.5-14.6,2.4-29.9-3.1-43.9-1.1-2.7-3.3-4.7-6.1-5.6-3.9-1.3-18.8-3.9-49,15.7h0c-13-3.4-26.4-5.1-39.9-4.8-13.5-.2-26.9,1.4-39.9,4.8C58.1-3.39,41.9-.19,38.7,.81c-2.8,.9-5,3-6.1,5.7-5.6,13.9-6.7,29.2-3.2,43.8-10.7,12.7-16.4,28.9-16,45.5,0,61.9,35.4,80.6,67.9,87.2-1.7,4.1-2.8,8.3-3.4,12.7-.1,.5-.1,.9,0,1.4v17.1c-29.6,2.5-35.9-14.8-36.5-16.8h0c-.1-.5-.3-.9-.5-1.3-5.7-11.6-15.8-20.6-28-24.9-5.1-1.7-10.7,1.1-12.4,6.2s1.1,10.7,6.2,12.4c6.8,2.4,12.4,7.3,15.9,13.6,3.9,12.7,19.9,32.8,55.2,30.6v16.1c0,5.4,4.4,9.8,9.8,9.8s9.8-4.4,9.8-9.8v-52.2c.7-5.7,3.2-11,7.1-15.3,2.8-2.6,3.8-6.6,2.6-10.2-1.2-3.6-4.4-6.2-8.2-6.6-34.2-4-65.7-15.2-65.7-70.4h0c-.5-13.5,4.7-26.5,14.3-36,2.6-2.8,3.5-6.8,2.2-10.4-3.3-9.6-3.5-20-.6-29.7,12,2.7,23.3,8,33.1,15.5,2.5,1.7,5.7,2.1,8.6,1.2,12.4-3.8,25.4-5.5,38.4-5.2,13-.3,25.9,1.4,38.4,5.2,2.9,.9,6.1,.5,8.6-1.2,9.4-7.2,20.2-12.5,31.7-15.4,2.9,9.8,2.6,20.3-.7,30-1.1,3.3-.4,6.9,1.9,9.5,9.3,9.9,14.5,22.9,14.7,36.5,0,55-33.2,66.5-65.7,70.4-4,.4-7.3,3.3-8.3,7.2-1,3.9,.4,8,3.6,10.4,3.5,2.6,7.5,10,7.5,22.4v44.4c0,5.4,4.4,9.8,9.8,9.8s9.8-4.4,9.8-9.8v-44.4c.1-7.8-1.3-15.5-4.2-22.8,26.3-5.7,66.9-23.1,66.9-87.5h0Z"/>
</svg>