<?xml version="1.0" encoding="utf-8"?>
<!-- Generator: Adobe Illustrator 26.4.1, SVG Export Plug-In . SVG Version: 6.00 Build 0)  -->
<svg version="1.1" id="Lager_1" xmlns="http://www.w3.org/2000/svg" xmlns:xlink="http://www.w3.org/1999/xlink" x="0px" y="0px"
	 viewBox="0 0 700 700" style="enable-background:new 0 0 700 700;" xml:space="preserve">
<path d="M-100.1,250.3c-0.1-16.4-5.7-32.4-16.1-45.1c3.5-14.6,2.4-29.9-3.1-43.9c-1.1-2.7-3.3-4.7-6.1-5.6
	c-3.9-1.3-18.8-3.9-49,15.7v0c-13-3.4-26.4-5.1-39.9-4.8c-13.5-0.2-26.9,1.4-39.9,4.8c-31-20-47.2-16.8-50.4-15.8
	c-2.8,0.9-5,3-6.1,5.7c-5.6,13.9-6.7,29.2-3.2,43.8c-10.7,12.7-16.4,28.9-16,45.5c0,61.9,35.4,80.6,67.9,87.2
	c-1.7,4.1-2.8,8.3-3.4,12.7c-0.1,0.5-0.1,0.9,0,1.4V369c-29.6,2.5-35.9-14.8-36.5-16.8v0c-0.1-0.5-0.3-0.9-0.5-1.3
	c-5.7-11.6-15.8-20.6-28-24.9c-5.1-1.7-10.7,1.1-12.4,6.2c-1.7,5.1,1.1,10.7,6.2,12.4c6.8,2.4,12.4,7.3,15.9,13.6
	c3.9,12.7,19.9,32.8,55.2,30.6v16.1c0,5.4,4.4,9.8,9.8,9.8c5.4,0,9.8-4.4,9.8-9.8v-52.2c0.7-5.7,3.2-11,7.1-15.3
	c2.8-2.6,3.8-6.6,2.6-10.2c-1.2-3.6-4.4-6.2-8.2-6.6c-34.2-4-65.7-15.2-65.7-70.4h0c-0.5-13.5,4.7-26.5,14.3-36
	c2.6-2.8,3.5-6.8,2.2-10.4c-3.3-9.6-3.5-20-0.6-29.7c12,2.7,23.3,8,33.1,15.5c2.5,1.7,5.7,2.1,8.6,1.2c12.4-3.8,25.4-5.5,38.4-5.2
	c13-0.3,25.9,1.4,38.4,5.2c2.9,0.9,6.1,0.5,8.6-1.2c9.4-7.2,20.2-12.5,31.7-15.4c2.9,9.8,2.6,20.3-0.7,30c-1.1,3.3-0.4,6.9,1.9,9.5
	c9.3,9.9,14.5,22.9,14.7,36.5c0,55-33.2,66.5-65.7,70.4c-4,0.4-7.3,3.3-8.3,7.2c-1,3.9,0.4,8,3.6,10.4c3.5,2.6,7.5,10,7.5,22.4v44.4
	c0,5.4,4.4,9.8,9.8,9.8c5.4,0,9.8-4.4,9.8-9.8v-44.4c0.1-7.8-1.3-15.5-4.2-22.8C-140.8,332.1-100.1,314.8-100.1,250.3L-100.1,250.3z
	"/>
<path d="M1256.4,202.7h-289c-0.3,0-0.5,0-0.8,0l-0.1,0c-5,0.5-8.8,4.6-8.7,9.6V405c0,5.3,4.3,9.6,9.6,9.6h289c5.3,0,9.6-4.3,9.6-9.6
	V212.3C1266,207,1261.7,202.7,1256.4,202.7z M1246.8,234.6v147.1l-77.4-77.4L1246.8,234.6z M991.7,222H1232L1111.9,330L991.7,222z
	 M1068.7,317.2l36.7,33l1.9,1.7l0.2-0.2c3.5,1.7,7.7,1.2,10.7-1.5l36.7-33l78.2,78.2H990.6L1068.7,317.2z M1054.4,304.3L977,381.7
	V234.6L1054.4,304.3z"/>
<path d="M270.7,248.3c-0.1,15.5-12.8,27.9-28.2,27.8c-15.5-0.1-27.9-12.8-27.8-28.2c0.1-15.4,12.6-27.8,28-27.8
	C258.2,220.1,270.7,232.8,270.7,248.3C270.7,248.3,270.7,248.3,270.7,248.3z M270.9,299.2h-56.5v180.8h56.5V299.2z M361.1,299.2H305
	v180.8h56.1V385c0-52.8,68.1-57.1,68.1,0v94.9h56.4V365.4c0-89-100.8-85.8-124.5-42V299.2z"/>
</svg>
