<?xml version="1.0" encoding="utf-8"?>
<!-- Generator: Adobe Illustrator 26.4.1, SVG Export Plug-In . SVG Version: 6.00 Build 0)  -->
<svg version="1.1" id="Lager_1" xmlns="http://www.w3.org/2000/svg" xmlns:xlink="http://www.w3.org/1999/xlink" x="0px" y="0px"
	 viewBox="0 0 152.5 152.6" style="enable-background:new 0 0 152.5 152.6;" xml:space="preserve">
<g>
	<path d="M85.2,141.5l0.4,1.3c0.3-0.8,1.2-1.8,2.8-2.1c2.4-0.5,5,0.9,5.6,4.1c0.6,3.2-1.4,5.4-3.8,5.9c-2.1,0.4-3.9-0.5-4.8-2.1
		l1.1-0.7c0.7,1.3,2,1.9,3.5,1.6c1.7-0.3,3.2-1.9,2.7-4.4c-0.5-2.5-2.3-3.5-4.1-3.2c-2.1,0.4-2.6,2.1-2.5,3.1l3.3-0.6l0.2,1.2
		l-4.6,0.9l-0.9-4.7L85.2,141.5z"/>
	<path d="M76.6,146l1.5,0l0-4l1.4,0l0,9.8l-3.7,0c-1.8,0-3-1.3-3-2.9c0-1.4,0.9-2.5,2.4-2.8l-2.3-4.1l1.6,0L76.6,146z M76,147.2
		c-1.1,0-1.8,0.6-1.8,1.7c0,1,0.7,1.7,1.8,1.7l2.1,0l0-3.3L76,147.2z"/>
	<path d="M62.3,143.3l4.3,0.7l1.5-2.5l1.4,0.2l-5.5,8.9l-1.5-0.3l-2.1-10.3l1.4,0.3L62.3,143.3z M65.9,145.2l-3.3-0.6l0.9,4.6
		L65.9,145.2z"/>
	<path d="M53.8,142.3l1.4-3.8l1.3,0.5l-3.3,9.2l-3.3-1.2c-1.7-0.6-2.4-2.2-1.8-3.7c0.6-1.6,2.1-2.3,3.8-1.7L53.8,142.3z M51.6,142.7
		c-1.1-0.4-2,0-2.3,0.9c-0.4,1,0.1,1.8,1.2,2.2l1.8,0.7l1.1-3.1L51.6,142.7z"/>
	<path d="M40.9,131.7l-2.2,3.7L43,138l2.2-3.7l1.2,0.7l-4.9,8.4l-1.2-0.7l2.1-3.6l-4.3-2.5l-2.1,3.6l-1.2-0.7l4.9-8.4L40.9,131.7z"
		/>
	<path d="M35.7,127.9l-6.1,7.6l-1.1-0.9l6.1-7.6L35.7,127.9z"/>
	<path d="M27.5,127.5c-2.4,2.2-5.4,1.7-7-0.1c-1.5-1.6-1.7-3.6-0.6-5.3l1.2,0.6c-0.8,1.3-0.7,2.6,0.4,3.8c1.2,1.3,3.3,1.7,5.2-0.1
		s1.7-3.9,0.5-5.2c-1.1-1.2-2.6-1.3-3.8-0.7l-0.5-1.2c1.7-0.9,3.7-0.6,5.2,1C29.6,122.3,29.9,125.3,27.5,127.5z"/>
	<path d="M18.9,108.6l-8.7,4.3l-1.5-3.1c-1.1-2.2-0.5-4.9,2.3-6.3c2.9-1.4,5.3-0.2,6.4,2L18.9,108.6z M16.4,106.2
		c-0.8-1.6-2.6-2.4-4.8-1.3c-2.2,1.1-2.7,3-1.9,4.6l0.9,1.8l6.6-3.3L16.4,106.2z"/>
	<path d="M13.8,97.2l-9.4,2.7l-1.7-5.7L4,93.9l1.3,4.4l2.9-0.8l-1.2-4l1.2-0.4l1.2,4l2.9-0.8L11,91.8l1.2-0.4L13.8,97.2z"/>
	<path d="M3.6,82.8C2.9,82.9,2,83.6,2.2,85c0.1,1.1,0.9,1.8,1.8,1.7c0.7-0.1,1.2-0.6,1.3-1.4l0.1-1.5c0.2-1.7,1.1-2.7,2.4-2.8
		c1.5-0.2,3,0.9,3.3,3c0.3,2.3-1.1,3.6-2.4,4l-0.6-1.2c1.1-0.2,2-1.1,1.8-2.6c-0.2-1.3-0.9-1.9-1.8-1.8c-0.7,0.1-1.2,0.6-1.3,1.6
		l-0.1,1.4c-0.1,1.4-0.9,2.5-2.4,2.7C2.8,88.2,1.2,87,1,85.2c-0.3-2.2,1-3.2,2-3.6L3.6,82.8z"/>
	<path d="M10.4,76l-9.8-0.1l0-1.4l9.8,0.1L10.4,76z"/>
	<path d="M11.8,62.2l-1.4-0.1c0.7,0.5,1.3,1.7,1.1,3.3c-0.4,2.4-2.5,4.4-5.8,3.9c-3.3-0.5-4.6-3.2-4.2-5.6c0.3-2.1,1.8-3.5,3.6-3.8
		l0.3,1.3C4,61.4,3,62.4,2.7,63.9c-0.3,1.7,0.7,3.6,3.2,4c2.6,0.4,4.1-1,4.4-2.7c0.3-2.1-1-3.2-2-3.4l-0.5,3.3L6.6,65l0.7-4.6
		l4.7,0.8L11.8,62.2z"/>
	<path d="M15.6,50.4l-9.3,2.1l7.4,2.8l-0.5,1.3l-9.1-3.4l0.6-1.7l8.7-1.9l-7-2.6l0.5-1.3l9.1,3.4L15.6,50.4z"/>
	<path d="M18.4,44.6l-8.4-5l3.1-5.1l1.1,0.6l-2.4,3.9l2.6,1.5l2.1-3.6l1.1,0.6l-2.1,3.6l2.6,1.5l2.4-3.9l1.1,0.6L18.4,44.6z"/>
	<path d="M23,31L22,32.1l3,2.6l-0.9,1l-7.4-6.3l2.4-2.8c1.2-1.4,2.9-1.4,4.1-0.4c1.1,0.9,1.3,2.3,0.6,3.6l4.6,0.9l-1,1.2L23,31z
		 M22.5,29.7c0.7-0.8,0.7-1.8-0.1-2.5c-0.8-0.7-1.8-0.5-2.5,0.3l-1.3,1.6l2.5,2.2L22.5,29.7z"/>
	<path d="M34.3,19.2c0.4-0.3,1-0.2,1.3,0.2c0.3,0.4,0.2,1-0.2,1.3c-0.4,0.3-1,0.2-1.3-0.2C33.8,20.1,33.9,19.5,34.3,19.2z"/>
	<path d="M47.6,16.8l-3.9-8.9l5.4-2.4l0.5,1.1l-4.2,1.8l1.3,2.9l3.8-1.7l0.5,1.2l-3.8,1.7l1.7,3.8L47.6,16.8z"/>
	<path d="M58.8,8.5l-1.4,0.4l1,3.9L57.1,13l-2.4-9.5l3.6-0.9c1.8-0.5,3.2,0.5,3.6,2.1c0.3,1.4-0.3,2.6-1.6,3.3l3.3,3.4L62,11.8
		L58.8,8.5z M59.1,7.1c1.1-0.3,1.6-1.1,1.4-2.1c-0.3-1-1.1-1.5-2.2-1.2l-2,0.5l0.8,3.2L59.1,7.1z"/>
	<path d="M71.5,0.4c2.4-0.2,5,1.5,5.2,4.8c0.2,3.3-2.1,5.2-4.6,5.4c-2.4,0.2-5-1.5-5.2-4.8C66.7,2.5,69.1,0.6,71.5,0.4z M72.1,9.3
		c1.8-0.1,3.4-1.5,3.3-4.1c-0.2-2.5-1.9-3.7-3.8-3.6c-1.8,0.1-3.4,1.5-3.3,4.1C68.5,8.2,70.2,9.4,72.1,9.3z"/>
	<path d="M88,11.2l-4.1-8.6l-1.1,7.9l-1.3-0.2l1.3-9.7l1.8,0.2L88.4,9l1-7.4l1.3,0.2l-1.3,9.7L88,11.2z"/>
	<path d="M100.3,5.7l-2.7,8.1l-1.3-0.4L99,5.3l-3.1-1l0.4-1.2l7.5,2.5l-0.4,1.2L100.3,5.7z"/>
	<path d="M104.4,16.5l4.5-8.6l5.3,2.8l-0.6,1.1l-4.1-2.1l-1.4,2.7l3.7,1.9l-0.6,1.1l-3.7-1.9l-1.4,2.6l4.1,2.1l-0.6,1.1L104.4,16.5z
		"/>
	<path d="M118.9,25.8l0.7-9.5l-4.9,6.3l-1.1-0.8l6-7.7l1.4,1.1l-0.8,8.9l4.6-5.9l1.1,0.8l-6,7.7L118.9,25.8z"/>
	<path d="M123.6,30.2l7.4-6.4l2.2,2.6c1.6,1.9,1.8,4.6-0.7,6.7c-2.4,2.1-5.1,1.5-6.7-0.3L123.6,30.2z M126.7,31.9
		c1.2,1.4,3.1,1.7,4.9,0.1c1.9-1.6,1.8-3.5,0.6-4.9l-1.3-1.5l-5.6,4.8L126.7,31.9z"/>
	<path d="M134.6,45.3l8.9-4.1l1.4,3.1c1,2.3,0.4,4.9-2.5,6.3c-2.9,1.3-5.3,0-6.4-2.2L134.6,45.3z M137.1,47.8
		c0.8,1.6,2.5,2.5,4.7,1.5c2.2-1,2.7-2.9,2-4.5l-0.8-1.8l-6.7,3.1L137.1,47.8z"/>
	<path d="M139.4,56.9l9.5-2.4l1.5,5.7l-1.2,0.3l-1.2-4.4l-2.9,0.8l1,4l-1.2,0.3l-1-4l-2.9,0.7l1.2,4.4l-1.2,0.3L139.4,56.9z"/>
	<path d="M151.9,72.7l0.1,1.4l-10-2.9l-0.1-1.3l9.4-4.5l0.1,1.4l-7.8,3.6L151.9,72.7z"/>
	<path d="M142.2,78.9l9.7,0.8l-0.5,5.9l-1.2-0.1l0.4-4.6l-3-0.3l-0.4,4.1l-1.3-0.1l0.4-4.1l-3-0.3l-0.4,4.6l-1.2-0.1L142.2,78.9z"/>
	<path d="M140.8,89.5l9.5,2.3l-0.3,1.3l-8.2-2l-1.1,4.5l-1.2-0.3L140.8,89.5z"/>
	<path d="M145.7,106.8c-1,2.2-3.6,3.7-6.6,2.4c-3-1.3-3.7-4.3-2.7-6.5c1-2.2,3.7-3.7,6.6-2.4C146,101.6,146.7,104.5,145.7,106.8z
		 M137.5,103.2c-0.7,1.7-0.2,3.8,2.1,4.8c2.3,1,4.2,0,4.9-1.7c0.7-1.7,0.2-3.7-2.1-4.8C140.1,100.5,138.2,101.5,137.5,103.2z"/>
	<path d="M134.8,114.4l-3.3-2.3l0.8-1.1l8,5.5l-2,2.9c-1,1.5-2.7,1.8-4.1,0.8c-1.4-0.9-1.7-2.6-0.7-4.1L134.8,114.4z M134.6,116.7
		c-0.7,1-0.5,1.9,0.3,2.5c0.9,0.6,1.8,0.4,2.5-0.6l1.1-1.6l-2.8-1.9L134.6,116.7z"/>
	<path d="M125.7,119.7l7,6.8l-4.1,4.3l-0.9-0.9l3.2-3.3l-2.2-2.1l-2.9,3l-0.9-0.9l2.9-3l-2.2-2.1l-3.2,3.3l-0.9-0.9L125.7,119.7z"/>
	<path d="M118.2,132l1.2-0.9l-2.4-3.2l1.1-0.8l5.8,7.8l-2.9,2.2c-1.5,1.1-3.2,0.7-4.1-0.5c-0.8-1.1-0.8-2.5,0.2-3.6l-4.3-1.9
		l1.3-0.9L118.2,132z M118.4,133.3c-0.9,0.7-1.1,1.6-0.5,2.4c0.6,0.8,1.6,0.9,2.5,0.3l1.7-1.2l-2-2.7L118.4,133.3z"/>
	<path d="M104.5,141c-0.5,0.2-1.1,0-1.3-0.5s0-1,0.5-1.3c0.5-0.2,1,0,1.3,0.5C105.2,140.2,105,140.8,104.5,141z"/>
</g>
</svg>
