<?xml version="1.0" encoding="utf-8"?>
<!-- Generator: Adobe Illustrator 26.4.1, SVG Export Plug-In . SVG Version: 6.00 Build 0)  -->
<svg version="1.1" id="Lager_1" xmlns="http://www.w3.org/2000/svg" xmlns:xlink="http://www.w3.org/1999/xlink" x="0px" y="0px"
	 viewBox="0 0 152.5 152.6" style="enable-background:new 0 0 152.5 152.6;" xml:space="preserve">
<g>
	<path d="M39.1,21.2l-0.8,0.5L33.3,14l5.3-3.4l0.5,0.7l-4.5,2.9L39.1,21.2z M36.5,17.3l4.1-2.6l0.5,0.7L36.9,18L36.5,17.3z"/>
	<path d="M47.5,16.4L44,7.9l3.2-1.3c0.7-0.3,1.4-0.4,2-0.4c0.6,0,1.2,0.2,1.6,0.5c0.5,0.3,0.8,0.8,1.1,1.4c0.3,0.6,0.3,1.2,0.2,1.7
		c-0.1,0.5-0.4,1-0.8,1.5c-0.4,0.4-1,0.8-1.7,1.1l-2.7,1.1l0.2-0.6l1.3,3.1L47.5,16.4z M47.1,13l-0.6-0.3l2.7-1.1
		c0.8-0.4,1.4-0.8,1.7-1.4c0.3-0.6,0.3-1.2,0-1.8c-0.3-0.7-0.7-1.1-1.3-1.3C49,6.9,48.3,7,47.4,7.3l-2.7,1.1L45,7.8L47.1,13z
		 M53.3,13.9l-3.5-2.2l1-0.4l3.5,2.2L53.3,13.9z"/>
	<path d="M62.6,11.4c-0.7,0.1-1.3,0.2-2,0.1c-0.6-0.1-1.2-0.3-1.7-0.6c-0.5-0.3-0.9-0.7-1.3-1.2c-0.4-0.5-0.6-1.1-0.7-1.7
		s-0.1-1.3,0-1.9c0.1-0.6,0.3-1.2,0.7-1.7c0.3-0.5,0.8-0.9,1.3-1.3c0.5-0.3,1.1-0.6,1.8-0.7c0.7-0.1,1.3-0.2,2-0.1
		c0.6,0.1,1.2,0.3,1.7,0.6c0.5,0.3,0.9,0.7,1.3,1.2c0.4,0.5,0.6,1.1,0.7,1.8c0.1,0.7,0.1,1.3,0,1.9c-0.1,0.6-0.3,1.2-0.7,1.7
		c-0.3,0.5-0.8,0.9-1.3,1.3C63.9,11,63.3,11.3,62.6,11.4z M62.4,10.6c0.5-0.1,1-0.3,1.4-0.6c0.4-0.3,0.8-0.6,1-1
		c0.3-0.4,0.5-0.9,0.5-1.3c0.1-0.5,0.1-1,0-1.5c-0.1-0.5-0.3-1-0.6-1.4s-0.6-0.8-1-1c-0.4-0.3-0.9-0.4-1.4-0.5c-0.5-0.1-1-0.1-1.6,0
		c-0.5,0.1-1,0.3-1.4,0.6c-0.4,0.3-0.8,0.6-1,1c-0.3,0.4-0.5,0.9-0.5,1.4s-0.1,1,0,1.5c0.1,0.5,0.3,1,0.6,1.4c0.3,0.4,0.6,0.8,1,1
		c0.4,0.3,0.9,0.4,1.4,0.5C61.3,10.7,61.9,10.7,62.4,10.6z"/>
	<path d="M71.8,10l-0.1-9.2l0.8,0l6.4,7.9l-0.4,0l-0.1-8l1,0l0.1,9.2l-0.8,0L72.3,2l0.4,0l0.1,8L71.8,10z"/>
	<path d="M86.6,10.7L88,2.5L84.8,2l0.1-0.8l7.3,1.2l-0.1,0.8l-3.2-0.5l-1.4,8.3L86.6,10.7z"/>
	<path d="M95.8,12l5.2,1.8l-0.3,0.8l-6.2-2.1l2.9-8.7l6,2l-0.3,0.8l-5.1-1.7L95.8,12z M97.1,7.9l4.6,1.5l-0.3,0.8l-4.6-1.5L97.1,7.9
		z"/>
	<path d="M105.1,16.4l4.5-8l0.7,0.4l1.7,10.1l-0.4-0.2l3.9-7l0.8,0.5l-4.5,8l-0.7-0.4l-1.7-10.1l0.4,0.2l-3.9,7L105.1,16.4z"/>
	<path d="M116.2,23.2l5.9-7l2.9,2.4c0.7,0.6,1.3,1.3,1.6,2.1c0.3,0.8,0.4,1.6,0.3,2.4c-0.1,0.8-0.5,1.5-1.1,2.2
		c-0.6,0.7-1.3,1.2-2,1.4c-0.8,0.3-1.6,0.3-2.4,0.1c-0.8-0.2-1.6-0.6-2.4-1.2L116.2,23.2z M117.5,23.1l2.1,1.8
		c0.6,0.5,1.3,0.9,1.9,1s1.3,0.1,1.9-0.1c0.6-0.2,1.2-0.6,1.6-1.2c0.5-0.6,0.8-1.2,0.9-1.8c0.1-0.6,0-1.3-0.2-1.9
		c-0.3-0.6-0.7-1.2-1.3-1.7l-2.1-1.8L117.5,23.1z"/>
	<path d="M129.7,36.7l7.7-5l2.1,3.1c0.5,0.8,0.8,1.6,0.9,2.5c0.1,0.8-0.1,1.6-0.4,2.3c-0.4,0.7-0.9,1.3-1.7,1.8
		c-0.8,0.5-1.5,0.8-2.3,0.8c-0.8,0-1.6-0.2-2.3-0.6c-0.7-0.4-1.4-1-1.9-1.8L129.7,36.7z M130.9,37.1l1.5,2.3c0.4,0.7,1,1.2,1.6,1.5
		c0.6,0.3,1.2,0.5,1.9,0.4c0.7,0,1.3-0.2,1.9-0.6c0.6-0.4,1.1-0.9,1.4-1.5c0.3-0.6,0.4-1.2,0.3-1.9c-0.1-0.7-0.3-1.4-0.8-2l-1.5-2.3
		L130.9,37.1z"/>
	<path d="M137.6,48.7l2.1,5.1l-0.8,0.3l-2.5-6l8.5-3.5l2.4,5.8l-0.8,0.3l-2.1-4.9L137.6,48.7z M141.4,46.9l1.9,4.5l-0.8,0.3
		l-1.9-4.5L141.4,46.9z"/>
	<path d="M140.9,61l8.1-6l0.2,1l-7.6,5.7l-0.1-0.6l9.3,1.8l0.2,1l-9.9-1.9L140.9,61z"/>
	<path d="M143.3,70.6l0.3,5.5l-0.8,0l-0.4-6.5l9.2-0.5l0.4,6.3l-0.8,0l-0.3-5.3L143.3,70.6z M147.5,70.2l0.3,4.9l-0.8,0l-0.3-4.9
		L147.5,70.2z"/>
	<path d="M142.5,80.8l9.2,0.9l-0.1,1l-8.3-0.9l-0.5,5.1l-0.8-0.1L142.5,80.8z"/>
	<path d="M140,94.5c0.2-0.7,0.5-1.3,0.9-1.8c0.4-0.5,0.8-0.9,1.4-1.2c0.5-0.3,1.1-0.5,1.7-0.6c0.6-0.1,1.2,0,1.9,0.2
		s1.2,0.5,1.7,0.9c0.5,0.4,0.9,0.8,1.2,1.4c0.3,0.5,0.5,1.1,0.5,1.7c0.1,0.6,0,1.3-0.2,2c-0.2,0.7-0.5,1.2-0.9,1.8
		c-0.4,0.5-0.8,0.9-1.4,1.2c-0.5,0.3-1.1,0.5-1.7,0.6c-0.6,0.1-1.2,0-1.9-0.2c-0.6-0.2-1.2-0.5-1.7-0.9c-0.5-0.4-0.9-0.8-1.2-1.4
		c-0.3-0.5-0.5-1.1-0.5-1.7C139.8,95.9,139.9,95.2,140,94.5z M140.9,94.8c-0.2,0.5-0.2,1-0.1,1.6c0.1,0.5,0.2,1,0.4,1.4
		s0.6,0.8,0.9,1.1c0.4,0.3,0.9,0.5,1.4,0.7s1,0.2,1.5,0.1c0.5-0.1,1-0.2,1.4-0.4c0.4-0.2,0.8-0.6,1.1-1c0.3-0.4,0.5-0.9,0.7-1.4
		s0.2-1.1,0.1-1.6c-0.1-0.5-0.2-1-0.4-1.4c-0.2-0.4-0.5-0.8-0.9-1.1c-0.4-0.3-0.9-0.5-1.4-0.7c-0.5-0.1-1-0.2-1.5-0.1
		c-0.5,0.1-1,0.2-1.4,0.5c-0.4,0.2-0.8,0.6-1.1,1C141.3,93.8,141,94.3,140.9,94.8z"/>
	<path d="M137,103.4l8.2,4.2l-1.6,3.1c-0.4,0.7-0.8,1.2-1.2,1.6c-0.5,0.4-1,0.6-1.5,0.7c-0.6,0.1-1.1-0.1-1.7-0.4
		c-0.6-0.3-1-0.7-1.3-1.2c-0.3-0.5-0.4-1-0.4-1.6c0-0.6,0.2-1.3,0.6-2l1.3-2.6l0.2,0.6l-3-1.5L137,103.4z M139.5,105.7l0.6-0.2
		l-1.3,2.6c-0.4,0.8-0.6,1.5-0.4,2.1c0.1,0.6,0.5,1.1,1.2,1.4c0.7,0.3,1.3,0.4,1.8,0.1c0.6-0.2,1.1-0.8,1.5-1.6l1.3-2.6l0.2,0.6
		L139.5,105.7z"/>
	<path d="M131.4,114.9l-3.3,4.5l-0.7-0.5l3.8-5.3l7.4,5.4l-3.7,5.1l-0.7-0.5l3.2-4.3L131.4,114.9z M134.9,117.3l-2.9,3.9l-0.7-0.5
		l2.9-3.9L134.9,117.3z"/>
	<path d="M119.8,126.6l4,0.8l-0.8,0.7l-4-0.8L119.8,126.6z M124.3,122.3l6.3,6.7l-2.5,2.4c-0.6,0.5-1.1,0.9-1.7,1.1
		c-0.6,0.2-1.1,0.2-1.7,0.1c-0.5-0.1-1-0.4-1.5-0.9c-0.4-0.5-0.7-1-0.8-1.5c-0.1-0.5,0-1.1,0.2-1.7c0.2-0.6,0.6-1.1,1.2-1.7l2.1-2
		l0,0.6l-2.3-2.4L124.3,122.3z M125.9,125.4l0.6,0l-2.1,2c-0.7,0.6-1,1.3-1.1,1.9c-0.1,0.6,0.1,1.2,0.7,1.7c0.5,0.5,1.1,0.8,1.7,0.7
		c0.6,0,1.3-0.4,1.9-1l2.1-2l0,0.6L125.9,125.4z"/>
	<path d="M111.6,136c0.2-0.1,0.3-0.1,0.5-0.1c0.2,0.1,0.3,0.2,0.4,0.3c0.1,0.2,0.1,0.4,0.1,0.6c0,0.2-0.2,0.3-0.3,0.4
		c-0.2,0.1-0.4,0.1-0.5,0.1s-0.3-0.2-0.4-0.3c-0.1-0.2-0.1-0.4-0.1-0.5C111.3,136.2,111.4,136.1,111.6,136z"/>
	<path d="M95.8,139.8c0.7-0.2,1.3-0.3,2-0.3c0.6,0,1.2,0.2,1.8,0.5c0.5,0.3,1,0.6,1.4,1.1c0.4,0.5,0.7,1,0.9,1.7s0.3,1.3,0.2,1.9
		c-0.1,0.6-0.2,1.2-0.5,1.7c-0.3,0.5-0.7,1-1.2,1.4c-0.5,0.4-1.1,0.7-1.7,0.9c-0.7,0.2-1.3,0.3-1.9,0.3c-0.6,0-1.2-0.2-1.7-0.5
		l0.4-0.8c0.5,0.3,1,0.4,1.5,0.4c0.5,0,1-0.1,1.5-0.2c0.5-0.2,1-0.4,1.4-0.7c0.4-0.3,0.7-0.7,1-1.1c0.2-0.4,0.4-0.9,0.4-1.4
		s0-1-0.2-1.5c-0.2-0.5-0.4-1-0.7-1.4c-0.3-0.4-0.7-0.7-1.2-0.9c-0.4-0.2-0.9-0.4-1.4-0.4s-1,0-1.6,0.2c-0.5,0.2-1,0.4-1.4,0.7
		s-0.7,0.7-1,1.2l-0.7-0.5c0.3-0.5,0.7-0.9,1.2-1.3C94.6,140.2,95.2,140,95.8,139.8z M93.8,141.7l1,3.2l-0.9,0.3l-1.1-3.3
		L93.8,141.7z"/>
	<path d="M81.3,142.7l2.8,3l-1,0.1l-2.8-3L81.3,142.7z M87.6,141.9l1.1,9.1l-3.4,0.4c-0.8,0.1-1.5,0.1-2-0.1
		c-0.6-0.2-1.1-0.5-1.4-0.9c-0.4-0.4-0.6-1-0.7-1.6c-0.1-0.6,0-1.2,0.2-1.7c0.2-0.5,0.6-0.9,1.2-1.2c0.5-0.3,1.2-0.5,2-0.6l2.9-0.4
		l-0.4,0.5l-0.4-3.3L87.6,141.9z M87,145.3l0.5,0.4l-2.9,0.4c-0.9,0.1-1.6,0.4-2,0.9c-0.4,0.5-0.6,1-0.5,1.8
		c0.1,0.7,0.4,1.3,0.9,1.6s1.2,0.5,2.2,0.3l2.9-0.4l-0.4,0.5L87,145.3z"/>
	<path d="M77.2,143l-4.7,9l-1-0.1l-3.7-9.4l1,0.1l3.4,8.8l-0.4,0l4.3-8.4L77.2,143z M75.4,145.3l-0.3,0.8l-5.3-0.3l-0.2-0.8
		L75.4,145.3z"/>
	<path d="M64,141.8l-2.1,9l-3.4-0.8c-0.8-0.2-1.4-0.5-1.9-0.8c-0.5-0.4-0.8-0.8-1-1.3c-0.2-0.5-0.2-1.1,0-1.8
		c0.1-0.6,0.4-1.1,0.8-1.5c0.4-0.4,0.9-0.6,1.5-0.8c0.6-0.1,1.3-0.1,2,0.1l2.8,0.7l-0.5,0.3l0.8-3.3L64,141.8z M62.3,144.7l0.3,0.6
		l-2.8-0.7c-0.9-0.2-1.6-0.2-2.2,0.1c-0.6,0.3-0.9,0.8-1.1,1.5c-0.2,0.7-0.1,1.3,0.3,1.8c0.4,0.5,1,0.9,1.9,1.1l2.8,0.7l-0.5,0.3
		L62.3,144.7z"/>
	<path d="M42.9,144.3l-0.9-0.4l3.7-8.4l0.9,0.4L42.9,144.3z M44.8,139.8l5.4,2.4l-0.3,0.8l-5.4-2.4L44.8,139.8z M51.9,138.3l0.9,0.4
		l-3.7,8.4l-0.9-0.4L51.9,138.3z"/>
	<path d="M41.1,132.7l-4.9,7.8l-0.8-0.5l4.9-7.8L41.1,132.7z"/>
	<path d="M32.7,126.5c0.5,0.4,0.9,0.9,1.2,1.5c0.3,0.6,0.5,1.1,0.5,1.7c0.1,0.6,0,1.2-0.2,1.8c-0.2,0.6-0.5,1.1-0.9,1.7
		c-0.4,0.5-0.9,0.9-1.5,1.2c-0.6,0.3-1.1,0.4-1.7,0.5c-0.6,0-1.2,0-1.8-0.2c-0.6-0.2-1.2-0.5-1.7-1c-0.5-0.4-0.9-0.9-1.2-1.5
		c-0.3-0.5-0.5-1.1-0.5-1.7l0.9-0.1c0,0.5,0.2,1,0.4,1.4s0.6,0.8,1,1.1c0.4,0.4,0.9,0.6,1.4,0.8c0.5,0.2,1,0.2,1.5,0.2
		c0.5,0,1-0.2,1.4-0.4c0.4-0.2,0.9-0.5,1.2-1c0.4-0.4,0.6-0.9,0.8-1.4c0.1-0.5,0.2-1,0.2-1.5c0-0.5-0.2-1-0.4-1.4
		c-0.2-0.4-0.6-0.9-1-1.2c-0.4-0.3-0.8-0.6-1.3-0.8c-0.5-0.2-1-0.2-1.5-0.2l-0.1-0.9c0.6-0.1,1.2,0,1.8,0.2
		C31.7,125.7,32.2,126,32.7,126.5z"/>
	<path d="M23.2,116.6l-7.7,5.1l-2.1-3.1c-0.5-0.8-0.9-1.6-0.9-2.5c-0.1-0.8,0-1.6,0.4-2.3c0.3-0.7,0.9-1.3,1.6-1.8
		c0.8-0.5,1.5-0.8,2.3-0.8s1.6,0.1,2.3,0.5c0.7,0.4,1.4,1,1.9,1.8L23.2,116.6z M21.9,116.2l-1.5-2.3c-0.5-0.7-1-1.2-1.6-1.5
		c-0.6-0.3-1.2-0.5-1.9-0.4c-0.7,0-1.3,0.3-1.9,0.7c-0.6,0.4-1.1,0.9-1.4,1.5c-0.3,0.6-0.4,1.2-0.3,1.9c0.1,0.7,0.3,1.4,0.8,2
		l1.5,2.3L21.9,116.2z"/>
	<path d="M15.2,104.7L13,99.6l0.8-0.3l2.6,6l-8.5,3.6l-2.5-5.8l0.8-0.3l2.1,4.9L15.2,104.7z M11.3,106.5L9.4,102l0.8-0.3l1.9,4.5
		L11.3,106.5z"/>
	<path d="M11.8,92.3c0.2,0.7,0.2,1.3,0.1,2c-0.1,0.7-0.2,1.2-0.5,1.6l-0.8-0.2c0.2-0.4,0.4-0.9,0.5-1.5c0.1-0.6,0-1.2-0.1-1.8
		c-0.1-0.6-0.3-1-0.5-1.3c-0.2-0.3-0.5-0.5-0.8-0.6c-0.3-0.1-0.6-0.1-0.9-0.1c-0.3,0.1-0.6,0.3-0.8,0.5c-0.2,0.3-0.3,0.6-0.3,0.9
		c0,0.4-0.1,0.7-0.1,1.2c0,0.4,0,0.8,0,1.2c0,0.4-0.1,0.8-0.2,1.2c-0.1,0.4-0.3,0.7-0.5,1c-0.2,0.3-0.6,0.5-1.1,0.6
		c-0.4,0.1-0.9,0.1-1.3,0s-0.8-0.4-1.2-0.9c-0.3-0.4-0.6-1-0.8-1.8c-0.1-0.5-0.2-1-0.2-1.5c0-0.5,0.1-1,0.3-1.4l0.8,0.1
		c-0.2,0.4-0.2,0.9-0.3,1.4c0,0.5,0,0.9,0.1,1.3c0.1,0.5,0.3,1,0.5,1.3c0.2,0.3,0.5,0.5,0.8,0.6c0.3,0.1,0.6,0.1,0.9,0
		C6,96,6.3,95.9,6.4,95.6c0.2-0.3,0.3-0.6,0.3-0.9c0-0.4,0.1-0.7,0.1-1.2c0-0.4,0-0.8,0-1.2c0-0.4,0.1-0.8,0.2-1.2
		c0.1-0.4,0.3-0.7,0.5-1c0.2-0.3,0.6-0.5,1.1-0.6c0.4-0.1,0.9-0.1,1.3,0.1c0.4,0.1,0.8,0.4,1.2,0.9C11.4,90.9,11.6,91.5,11.8,92.3z"
		/>
	<path d="M10.3,84.4l-9.1,1l-0.1-1l9.1-1L10.3,84.4z"/>
	<path d="M9.9,74c0,0.7-0.2,1.3-0.4,1.9c-0.2,0.6-0.6,1.1-1,1.5c-0.4,0.4-0.9,0.7-1.5,1c-0.6,0.2-1.2,0.3-1.9,0.3
		c-0.7,0-1.3-0.2-1.9-0.4c-0.6-0.3-1-0.6-1.5-1.1c-0.4-0.4-0.7-1-0.9-1.6c-0.2-0.6-0.3-1.2-0.3-1.9c0-0.7,0.1-1.3,0.4-1.9
		c0.2-0.6,0.6-1.1,1-1.5l0.6,0.6c-0.4,0.4-0.7,0.8-0.9,1.3c-0.2,0.5-0.3,1-0.3,1.5c0,0.6,0.1,1.1,0.2,1.6c0.2,0.5,0.4,0.9,0.8,1.3
		c0.3,0.4,0.7,0.7,1.2,0.9c0.5,0.2,1,0.3,1.5,0.3c0.5,0,1-0.1,1.5-0.3c0.5-0.2,0.9-0.4,1.2-0.8c0.4-0.3,0.6-0.8,0.8-1.2
		s0.3-1,0.3-1.5c0-0.5-0.1-1-0.2-1.5c-0.1-0.5-0.4-0.9-0.8-1.3l0.8-0.5c0.4,0.4,0.7,1,0.8,1.6C9.8,72.7,9.9,73.3,9.9,74z M8.7,71.5
		l-3.4-0.1l0-0.9l3.5,0.1L8.7,71.5z"/>
	<path d="M10.6,65.6l-9-2l0.2-0.8l9.2-4.4l-0.1,0.4L3,57L3.3,56l9,2l-0.2,0.8l-9.2,4.4L3,62.9l7.8,1.7L10.6,65.6z"/>
	<path d="M13.6,51.7l2.2-5.1l0.8,0.3L14,53l-8.5-3.6L8,43.5l0.8,0.3l-2.1,4.9L13.6,51.7z M9.6,50.2l1.9-4.5l0.8,0.3l-1.9,4.5
		L9.6,50.2z"/>
	<path d="M18.8,42.9l-7.7-5l1.9-2.9c0.4-0.7,0.9-1.1,1.4-1.5c0.5-0.3,1.1-0.5,1.6-0.5c0.6,0,1.1,0.2,1.7,0.5
		c0.5,0.4,0.9,0.8,1.2,1.3c0.2,0.5,0.3,1.1,0.2,1.7c-0.1,0.6-0.4,1.2-0.8,1.9l-1.6,2.4l-0.1-0.6l2.8,1.8L18.8,42.9z M16.5,40.3
		l-0.6,0.1l1.6-2.4c0.5-0.8,0.7-1.5,0.6-2.1s-0.4-1.1-1-1.5c-0.6-0.4-1.2-0.5-1.8-0.3c-0.6,0.2-1.1,0.7-1.7,1.4L12,37.9l-0.1-0.6
		L16.5,40.3z M22.2,37.6l-4.1,0.2l0.6-0.9l4.1-0.2L22.2,37.6z"/>
	<path d="M28,26.6c-0.1,0.1-0.3,0.2-0.5,0.2s-0.4-0.1-0.5-0.2c-0.1-0.2-0.2-0.3-0.2-0.5c0-0.2,0.1-0.4,0.2-0.5
		c0.1-0.1,0.3-0.2,0.5-0.2c0.2,0,0.4,0.1,0.5,0.2c0.1,0.1,0.2,0.3,0.2,0.5C28.2,26.3,28.1,26.5,28,26.6z"/>
</g>
</svg>
