<?xml version="1.0" encoding="UTF-8"?>
<svg id="Lager_1" data-name="Lager 1" xmlns="http://www.w3.org/2000/svg" viewBox="0 0 152.47 152.62">
  <defs>
    <style>
      .cls-1 {
        fill: #1d1d1b;
      }
    </style>
  </defs>
  <path class="cls-1" d="M52.97,14.31l-1.58,.56-3.33-9.35,5.82-2.07,.53,1.49-4.23,1.51,.94,2.62,3.8-1.35,.52,1.46-3.8,1.35,1.34,3.77Z"/>
  <path class="cls-1" d="M66.05,10.88l-2.76-3.48-1.21,.22,.7,3.86-1.67,.3-1.78-9.77,3.75-.68c.92-.17,1.71-.02,2.37,.44,.66,.46,1.07,1.12,1.23,1.96,.13,.7,.04,1.33-.27,1.9-.3,.57-.78,1-1.43,1.29l2.94,3.62-1.87,.34Zm-4.23-4.72l1.78-.32c.5-.09,.89-.3,1.14-.63,.26-.33,.35-.71,.26-1.17-.08-.46-.3-.8-.66-1.01s-.79-.28-1.29-.18l-1.78,.32,.54,2.99Z"/>
  <path class="cls-1" d="M72.14,7.87c-.47-.81-.69-1.74-.68-2.78,.02-1.04,.27-1.96,.77-2.75s1.12-1.38,1.88-1.77c.76-.39,1.59-.58,2.47-.56s1.7,.23,2.45,.64c.75,.41,1.36,1.02,1.83,1.83,.47,.81,.7,1.73,.68,2.78-.02,1.05-.27,1.97-.77,2.76-.5,.79-1.13,1.39-1.89,1.78-.76,.39-1.59,.58-2.47,.56-.89-.01-1.7-.23-2.45-.64-.75-.41-1.36-1.03-1.83-1.84Zm2.07-5.38c-.66,.62-1,1.49-1.02,2.62-.02,1.13,.29,2.01,.94,2.65s1.42,.97,2.32,.98c.9,.01,1.69-.29,2.36-.91,.67-.62,1.01-1.49,1.03-2.62,.02-1.13-.3-2.01-.94-2.65-.65-.64-1.42-.97-2.33-.98-.91-.02-1.69,.29-2.35,.91Z"/>
  <path class="cls-1" d="M93.72,12.34l-1.71-.35-3.28-8.35-1.52,7.36-1.65-.34,2.01-9.72,2.1,.43,2.99,7.81,1.42-6.9,1.65,.34-2.01,9.72Z"/>
  <path class="cls-1" d="M108,8.77l-3-1.22-3.14,7.73-1.56-.63,3.14-7.73-2.98-1.21,.6-1.47,7.54,3.06-.59,1.47Z"/>
  <path class="cls-1" d="M113.44,21.5l-5.23-3.2,5.17-8.47,5.23,3.2-.82,1.34-3.8-2.32-1.37,2.25,3.44,2.1-.8,1.3-3.44-2.1-1.37,2.25,3.8,2.32-.82,1.34Z"/>
  <path class="cls-1" d="M123.26,29.58l-1.31-1.16,1.33-8.88-4.99,5.62-1.26-1.11,6.59-7.42,1.6,1.42-1.3,8.26,4.67-5.27,1.26,1.11-6.59,7.42Z"/>
  <path class="cls-1" d="M128.59,35.84l-2.13-2.78,7.88-6.04,2.14,2.79c.85,1.11,1.2,2.3,1.05,3.56-.15,1.26-.84,2.36-2.07,3.31-1.22,.94-2.46,1.31-3.71,1.12-1.25-.19-2.3-.84-3.16-1.96Zm.12-2.38l1.07,1.4c.56,.73,1.25,1.15,2.07,1.26,.82,.12,1.67-.16,2.55-.83,.88-.68,1.38-1.43,1.49-2.25,.11-.83-.11-1.6-.67-2.33l-1.08-1.41-5.43,4.16Z"/>
  <path class="cls-1" d="M137.75,51.85l-1.28-3.26,9.24-3.63,1.28,3.27c.51,1.3,.52,2.54,.03,3.71s-1.46,2.04-2.9,2.61c-1.43,.56-2.73,.58-3.88,.05-1.15-.53-1.98-1.45-2.49-2.75Zm.77-2.26l.64,1.64c.33,.85,.88,1.45,1.64,1.78,.76,.34,1.65,.31,2.68-.1,1.03-.41,1.72-.99,2.06-1.75,.34-.76,.34-1.57,0-2.42l-.65-1.66-6.37,2.5Z"/>
  <path class="cls-1" d="M141.77,66.39l-1.21-6.01,9.73-1.96,1.21,6.01-1.54,.31-.88-4.36-2.58,.52,.8,3.95-1.5,.3-.8-3.95-2.58,.52,.88,4.36-1.54,.31Z"/>
  <path class="cls-1" d="M144.61,74.3l7.81,2.55,.05,1.78-10.03-3.45-.05-1.71,9.81-3.99,.05,1.82-7.64,3Z"/>
  <path class="cls-1" d="M141.38,88.71l.84-6.08,9.83,1.35-.83,6.07-1.55-.21,.61-4.41-2.61-.36-.55,3.99-1.51-.21,.55-3.99-2.61-.36-.61,4.41-1.55-.21Z"/>
  <path class="cls-1" d="M138.57,99.03l1.81-5.96,9.5,2.88-.49,1.61-7.97-2.42-1.32,4.35-1.53-.46Z"/>
  <path class="cls-1" d="M139.23,103.44c.93-.07,1.87,.14,2.8,.61s1.65,1.1,2.14,1.89c.49,.79,.75,1.61,.77,2.47,.02,.86-.18,1.68-.58,2.47-.4,.79-.95,1.43-1.65,1.93-.7,.49-1.51,.78-2.45,.85-.93,.07-1.86-.13-2.8-.6-.93-.47-1.65-1.11-2.14-1.9-.5-.8-.75-1.62-.77-2.48-.02-.86,.18-1.68,.58-2.47,.4-.79,.95-1.43,1.65-1.93,.7-.49,1.52-.77,2.45-.84Zm3.93,4.21c-.27-.87-.9-1.56-1.91-2.07-1.01-.51-1.94-.62-2.8-.32s-1.49,.85-1.9,1.66-.48,1.65-.22,2.52c.26,.87,.9,1.56,1.91,2.07,1.01,.51,1.94,.62,2.8,.31,.86-.3,1.49-.86,1.9-1.66,.41-.81,.48-1.65,.21-2.51Z"/>
  <path class="cls-1" d="M131.51,119.5l1.22-1.59-3.08-2.36,1.02-1.33,7.88,6.03-2.24,2.92c-.57,.75-1.26,1.18-2.07,1.3-.81,.12-1.56-.09-2.25-.62-.7-.54-1.1-1.21-1.2-2.02-.09-.81,.15-1.58,.72-2.33Zm2.4-.69l-1.06,1.39c-.32,.42-.47,.84-.43,1.25s.24,.75,.61,1.04c.38,.29,.77,.4,1.18,.33,.41-.07,.77-.32,1.1-.74l1.06-1.39-2.45-1.87Z"/>
  <path class="cls-1" d="M119.32,126.78l4.46-4.21,6.82,7.21-4.46,4.21-1.08-1.14,3.24-3.06-1.81-1.91-2.93,2.77-1.05-1.11,2.93-2.77-1.81-1.91-3.24,3.06-1.08-1.14Z"/>
  <path class="cls-1" d="M111.7,132.36l3.92,2.08,1.02-.69-2.19-3.25,1.4-.95,5.56,8.22-3.16,2.13c-.77,.52-1.56,.71-2.35,.55-.79-.16-1.43-.59-1.91-1.3-.4-.59-.57-1.2-.52-1.85s.31-1.23,.79-1.75l-4.14-2.13,1.58-1.07Zm5.77,2.62l-1.5,1.01c-.43,.29-.69,.63-.8,1.04-.1,.4-.03,.79,.23,1.17,.26,.39,.6,.61,1.01,.66,.41,.05,.83-.06,1.26-.35l1.5-1.01-1.7-2.52Z"/>
  <path class="cls-1" d="M102.59,141.7c.11,.28,.1,.56-.02,.83-.12,.28-.32,.47-.6,.58-.29,.11-.57,.11-.85-.02s-.47-.32-.58-.6c-.11-.29-.1-.57,.02-.83,.13-.27,.33-.46,.62-.57,.29-.11,.57-.11,.84,0,.27,.12,.46,.32,.57,.6Z"/>
  <path class="cls-1" d="M80.16,142.68l1.35-.17,.29,1.23c.19-.44,.52-.83,1.01-1.18s1.09-.57,1.82-.66c1.34-.17,2.54,.15,3.61,.96,1.06,.81,1.7,2,1.9,3.56,.13,1.04,.01,1.98-.36,2.84s-.91,1.53-1.6,2.02c-.69,.49-1.47,.79-2.34,.9-1.14,.15-2.13-.01-2.98-.48-.85-.47-1.46-1.12-1.85-1.95l1.49-.8c.25,.57,.65,1.02,1.2,1.34,.55,.32,1.19,.44,1.94,.34,.88-.11,1.6-.52,2.17-1.22,.57-.7,.78-1.63,.63-2.78-.15-1.14-.57-1.98-1.29-2.54s-1.52-.77-2.43-.66c-.89,.11-1.54,.43-1.94,.96-.41,.53-.6,1.06-.59,1.61l3.25-.42,.19,1.46-4.82,.62-.64-4.98Z"/>
  <path class="cls-1" d="M70.75,142.44l1.87,4.03,1.23,.07,.21-3.92,1.69,.09-.53,9.91-3.8-.2c-.93-.05-1.67-.38-2.2-.98-.54-.6-.78-1.33-.74-2.19,.04-.71,.27-1.3,.7-1.79,.43-.48,.99-.79,1.69-.92l-2.02-4.2,1.9,.1Zm3.02,5.57l-1.8-.1c-.51-.03-.93,.09-1.26,.35-.33,.26-.5,.62-.53,1.07-.02,.47,.11,.84,.41,1.14,.3,.29,.7,.45,1.21,.48l1.8,.1,.16-3.03Z"/>
  <path class="cls-1" d="M58.15,140.22l.35,2.64,4.09,.95,1.47-2.22,1.73,.4-6.02,8.79-1.9-.44-1.51-10.54,1.79,.42Zm1.12,8.58l2.4-3.61-2.94-.69,.55,4.3Z"/>
  <path class="cls-1" d="M47.94,140.59l1.84,.79,1.53-3.56,1.54,.66-3.92,9.12-3.38-1.45c-.87-.37-1.45-.93-1.77-1.69-.31-.75-.29-1.53,.05-2.34,.35-.82,.9-1.37,1.66-1.66,.76-.29,1.57-.25,2.44,.12Zm1.25,2.15l-1.61-.69c-.49-.21-.93-.25-1.31-.11-.39,.13-.67,.41-.86,.84-.19,.44-.2,.84-.03,1.22,.17,.38,.5,.67,.99,.88l1.61,.69,1.21-2.83Z"/>
  <path class="cls-1" d="M36.4,129.51l1.41,.93-2.34,3.54,3.89,2.57,2.34-3.54,1.4,.93-5.47,8.29-1.4-.93,2.26-3.42-3.89-2.57-2.26,3.42-1.41-.93,5.47-8.29Z"/>
  <path class="cls-1" d="M31.43,125.24l1.27,1.14-6.61,7.4-1.27-1.14,6.61-7.4Z"/>
  <path class="cls-1" d="M25.23,118.4c.89,1.07,1.29,2.28,1.18,3.63-.1,1.35-.75,2.53-1.95,3.53-1.19,.99-2.47,1.41-3.83,1.26-1.36-.15-2.48-.75-3.35-1.79-.76-.92-1.16-1.87-1.19-2.85-.03-.98,.24-1.86,.8-2.65l1.42,.88c-.39,.53-.59,1.12-.59,1.75,0,.63,.26,1.25,.76,1.86,.57,.68,1.3,1.07,2.2,1.16,.9,.1,1.79-.22,2.66-.95,.85-.71,1.32-1.52,1.39-2.41s-.18-1.69-.76-2.39c-.5-.6-1.07-.95-1.71-1.07-.65-.12-1.26-.05-1.86,.2l-.6-1.51c.87-.4,1.79-.51,2.78-.32,.99,.19,1.86,.75,2.63,1.67Z"/>
  <path class="cls-1" d="M15.59,103.2l1.4,3.21-9.1,3.97-1.41-3.22c-.56-1.28-.62-2.52-.17-3.71,.45-1.19,1.38-2.09,2.8-2.71,1.41-.62,2.7-.68,3.87-.19s2.04,1.37,2.6,2.66Zm-.68,2.28l-.71-1.62c-.37-.84-.93-1.41-1.71-1.72-.77-.31-1.66-.24-2.67,.2-1.02,.44-1.68,1.05-1.99,1.83-.31,.78-.28,1.58,.09,2.42l.71,1.63,6.27-2.74Z"/>
  <path class="cls-1" d="M11.02,88.81l1.44,5.96-9.65,2.33-1.44-5.96,1.52-.37,1.04,4.33,2.56-.62-.95-3.92,1.48-.36,.95,3.92,2.56-.62-1.04-4.33,1.52-.37Z"/>
  <path class="cls-1" d="M2.28,78.49l.59,1.47c-.38,.09-.71,.31-1,.65-.29,.34-.42,.81-.37,1.4,.04,.49,.21,.89,.51,1.19,.3,.3,.65,.44,1.04,.41,.68-.05,1.07-.47,1.18-1.25l.19-1.45c.1-.87,.39-1.56,.87-2.06,.48-.5,1.07-.78,1.78-.84,.82-.06,1.55,.2,2.19,.78,.64,.58,1,1.42,1.08,2.5,.09,1.16-.15,2.09-.71,2.79s-1.24,1.12-2.05,1.26l-.56-1.53c.55-.1,1.01-.36,1.36-.78,.35-.42,.5-.96,.45-1.63-.04-.58-.2-1.01-.48-1.3-.28-.29-.62-.42-1.02-.39-.33,.02-.6,.16-.82,.41-.22,.25-.36,.59-.42,1.01l-.19,1.42c-.1,.78-.38,1.42-.83,1.91-.45,.49-1.04,.76-1.76,.81-.83,.06-1.56-.21-2.21-.83-.65-.62-1-1.38-1.07-2.31-.08-1.05,.11-1.88,.58-2.47s1.03-.99,1.69-1.18Z"/>
  <path class="cls-1" d="M10.09,71.86l-.09,1.71L.08,73.02l.09-1.71,9.91,.54Z"/>
  <path class="cls-1" d="M12.24,58.42l-.27,1.33-1.26-.13c.35,.32,.62,.77,.79,1.34s.19,1.22,.04,1.94c-.27,1.33-.97,2.36-2.08,3.1-1.11,.74-2.44,.95-3.98,.63-1.02-.21-1.88-.63-2.57-1.27-.69-.63-1.15-1.36-1.39-2.17s-.27-1.65-.09-2.51c.23-1.12,.71-2.01,1.42-2.66,.72-.65,1.53-1.02,2.45-1.12l.27,1.67c-.62,.05-1.17,.29-1.66,.7-.49,.41-.8,.99-.96,1.72-.18,.87-.03,1.69,.45,2.45,.48,.77,1.29,1.27,2.42,1.5,1.12,.23,2.06,.1,2.82-.39,.75-.49,1.22-1.19,1.41-2.08,.18-.88,.09-1.59-.28-2.15-.37-.56-.81-.92-1.33-1.08l-.66,3.21-1.44-.3,.98-4.76,4.92,1.02Z"/>
  <path class="cls-1" d="M16.86,46.58l-.69,1.61-8.84,1.56,6.92,2.95-.66,1.54-9.13-3.89,.84-1.97,8.25-1.38-6.48-2.76,.66-1.55,9.13,3.9Z"/>
  <path class="cls-1" d="M22.57,37.34l-3.37,5.12-8.29-5.45,3.37-5.12,1.31,.86-2.44,3.72,2.2,1.45,2.21-3.37,1.27,.84-2.21,3.37,2.2,1.45,2.44-3.72,1.31,.86Z"/>
  <path class="cls-1" d="M28.7,30.15l-4.3-1.12-.83,.91,2.88,2.66-1.15,1.25-7.3-6.73,2.58-2.8c.63-.69,1.35-1.04,2.16-1.07,.81-.03,1.53,.25,2.16,.83,.52,.48,.83,1.04,.93,1.68,.1,.64-.02,1.27-.37,1.89l4.52,1.12-1.29,1.4Zm-6.22-1.22l1.22-1.33c.35-.38,.53-.77,.54-1.19s-.15-.78-.49-1.09c-.34-.32-.72-.45-1.14-.41-.41,.04-.8,.25-1.14,.63l-1.22,1.33,2.23,2.06Z"/>
  <path class="cls-1" d="M35.4,18.96c-.17-.25-.23-.52-.17-.82,.05-.3,.21-.53,.45-.7,.25-.17,.53-.23,.83-.18,.3,.06,.53,.21,.7,.45,.17,.25,.23,.53,.17,.82-.06,.29-.22,.52-.47,.7-.25,.17-.52,.24-.81,.19s-.52-.2-.7-.46Z"/>
</svg>