<?xml version="1.0" encoding="utf-8"?>
<!-- Generator: Adobe Illustrator 26.4.1, SVG Export Plug-In . SVG Version: 6.00 Build 0)  -->
<svg version="1.1" id="Lager_1" xmlns="http://www.w3.org/2000/svg" xmlns:xlink="http://www.w3.org/1999/xlink" x="0px" y="0px"
	 viewBox="0 0 152.5 152.6" style="enable-background:new 0 0 152.5 152.6;" xml:space="preserve">
<g>
	<path d="M47.8,16.2l-3.9-8.9L49.3,5l0.5,1.1L45.6,8l1.2,2.9l3.8-1.6l0.5,1.2L47.4,12l1.6,3.7L47.8,16.2z"/>
	<path d="M59.1,8l-1.4,0.4l1,3.8l-1.3,0.3L55,3.1l3.5-0.9c1.8-0.4,3.2,0.5,3.6,2.1c0.3,1.4-0.3,2.6-1.6,3.2l3.2,3.4l-1.5,0.4L59.1,8
		z M59.4,6.7c1.1-0.3,1.6-1.1,1.4-2c-0.3-1-1.1-1.5-2.2-1.2l-2,0.5l0.8,3.2L59.4,6.7z"/>
	<path d="M71.8,0c2.4-0.1,5,1.5,5.2,4.7s-2.1,5.2-4.6,5.3c-2.4,0.1-5-1.5-5.2-4.8C67.1,2.1,69.4,0.2,71.8,0z M72.3,8.9
		c1.8-0.1,3.4-1.5,3.3-4c-0.2-2.5-1.9-3.7-3.7-3.6c-1.8,0.1-3.4,1.5-3.3,4C68.8,7.8,70.5,9,72.3,8.9z"/>
	<path d="M88.3,10.8l-4.1-8.6L83.1,10l-1.3-0.2l1.3-9.6l1.8,0.2l3.8,8l1-7.4L91,1.4L89.7,11L88.3,10.8z"/>
	<path d="M100.6,5.3l-2.7,8l-1.3-0.4l2.7-8l-3.1-1l0.4-1.2l7.4,2.5l-0.4,1.2L100.6,5.3z"/>
	<path d="M104.8,16l4.5-8.6l5.2,2.7l-0.6,1.1l-4-2.1l-1.4,2.6l3.7,1.9l-0.6,1.1l-3.7-1.9l-1.4,2.6l4,2.1l-0.6,1.1L104.8,16z"/>
	<path d="M119.2,25.4l0.7-9.4l-4.9,6.2l-1.1-0.8l6-7.6l1.4,1.1l-0.8,8.8l4.6-5.9l1.1,0.8l-6,7.6L119.2,25.4z"/>
	<path d="M124,29.8l7.3-6.4l2.2,2.6c1.6,1.9,1.8,4.6-0.6,6.7c-2.4,2.1-5.1,1.5-6.7-0.3L124,29.8z M127.1,31.5
		c1.2,1.4,3.1,1.7,4.9,0.1c1.8-1.6,1.8-3.5,0.6-4.9l-1.3-1.5l-5.5,4.8L127.1,31.5z"/>
	<path d="M135.1,45l8.8-4.1l1.4,3.1c1,2.2,0.4,4.9-2.5,6.2c-2.9,1.3-5.3,0-6.3-2.2L135.1,45z M137.6,47.5c0.7,1.6,2.5,2.5,4.7,1.5
		c2.2-1,2.7-2.9,2-4.5l-0.8-1.8l-6.6,3.1L137.6,47.5z"/>
	<path d="M139.9,56.6l9.4-2.5l1.5,5.7l-1.2,0.3l-1.2-4.4l-2.9,0.8l1,4l-1.2,0.3l-1-4l-2.9,0.7l1.2,4.4l-1.2,0.3L139.9,56.6z"/>
	<path d="M152.3,72.3l0.1,1.4l-10-2.9l-0.1-1.3l9.3-4.5l0.1,1.4l-7.7,3.6L152.3,72.3z"/>
	<path d="M142.7,78.7l9.7,0.8l-0.5,5.9l-1.2-0.1l0.4-4.5l-3-0.2l-0.3,4.1l-1.3-0.1l0.3-4.1l-3-0.2l-0.4,4.5l-1.2-0.1L142.7,78.7z"/>
	<path d="M141.4,89.3l9.4,2.3l-0.3,1.3l-8.2-2l-1.1,4.4L140,95L141.4,89.3z"/>
	<path d="M146.2,106.5c-1,2.2-3.6,3.7-6.6,2.4c-3-1.3-3.7-4.3-2.7-6.5c1-2.2,3.6-3.7,6.6-2.4C146.5,101.3,147.2,104.3,146.2,106.5z
		 M138.1,103c-0.7,1.7-0.2,3.7,2.1,4.7c2.3,1,4.2,0,4.9-1.7c0.7-1.7,0.2-3.7-2.1-4.7C140.7,100.3,138.8,101.3,138.1,103z"/>
	<path d="M135.3,114.2l-3.3-2.2l0.8-1.1l8,5.5l-2,2.9c-1,1.5-2.7,1.8-4.1,0.9c-1.4-0.9-1.7-2.6-0.7-4.1L135.3,114.2z M135.2,116.5
		c-0.7,1-0.5,1.9,0.3,2.5c0.8,0.6,1.8,0.4,2.4-0.6l1.1-1.6l-2.7-1.9L135.2,116.5z"/>
	<path d="M126.3,119.6l7,6.7l-4.1,4.3l-0.9-0.9l3.1-3.3l-2.2-2.1l-2.8,3l-0.9-0.9l2.8-3l-2.2-2l-3.1,3.3l-0.9-0.9L126.3,119.6z"/>
	<path d="M118.8,131.9l1.2-0.9l-2.4-3.2l1.1-0.8l5.8,7.7l-2.9,2.2c-1.5,1.1-3.1,0.8-4.1-0.5c-0.8-1.1-0.8-2.5,0.2-3.6l-4.3-1.9
		l1.2-0.9L118.8,131.9z M119.1,133.3c-0.9,0.7-1.1,1.6-0.5,2.4c0.6,0.8,1.6,0.9,2.5,0.2l1.6-1.2l-2-2.7L119.1,133.3z"/>
	<path d="M105.1,141c-0.5,0.2-1,0-1.3-0.5c-0.2-0.5,0-1,0.5-1.2c0.5-0.2,1,0,1.2,0.5C105.8,140.3,105.6,140.8,105.1,141z"/>
	<path d="M84.4,141.8l0.4,1.3c0.3-0.8,1.2-1.8,2.8-2.1c2.4-0.4,4.9,1,5.5,4.2c0.6,3.2-1.5,5.4-3.9,5.8c-2.1,0.4-3.9-0.5-4.7-2.2
		l1.1-0.7c0.7,1.3,1.9,1.9,3.4,1.7c1.7-0.3,3.2-1.8,2.7-4.3c-0.4-2.5-2.3-3.5-4-3.2c-2.1,0.4-2.6,2-2.5,3l3.3-0.6l0.2,1.2l-4.6,0.8
		l-0.8-4.7L84.4,141.8z"/>
	<path d="M75.7,146.2l1.4,0l0.1-4l1.4,0l-0.2,9.7l-3.6-0.1c-1.8,0-2.9-1.3-2.9-2.9c0-1.4,0.9-2.5,2.4-2.7l-2.2-4.1l1.6,0L75.7,146.2
		z M75.1,147.4c-1.1,0-1.8,0.6-1.9,1.6c0,1,0.7,1.7,1.8,1.7l2,0l0.1-3.3L75.1,147.4z"/>
	<path d="M65.4,145.3l0.7-3.9l1.3,0.2l-1.7,9.5l-3.5-0.6c-1.8-0.3-2.7-1.8-2.4-3.4c0.3-1.6,1.7-2.6,3.5-2.3L65.4,145.3z M63.3,146.2
		c-1.1-0.2-2,0.3-2.1,1.3c-0.2,1,0.4,1.8,1.5,2l1.9,0.3l0.6-3.3L63.3,146.2z"/>
	<path d="M51.3,140.2l4,1.4l1.9-2.2l1.4,0.5l-6.9,7.8l-1.5-0.5l-0.4-10.4l1.4,0.5L51.3,140.2z M54.5,142.7l-3.1-1.1l0.1,4.7
		L54.5,142.7z"/>
	<path d="M40.8,131.8l-2.2,3.7l4.3,2.5l2.2-3.7l1.2,0.7l-4.9,8.4l-1.2-0.7l2.1-3.6l-4.3-2.5l-2.1,3.6l-1.2-0.7l4.9-8.4L40.8,131.8z"
		/>
	<path d="M35.5,128l-6.1,7.6l-1.1-0.9l6.1-7.6L35.5,128z"/>
	<path d="M27.3,127.5c-2.4,2.2-5.3,1.7-7-0.1c-1.5-1.6-1.7-3.6-0.6-5.2l1.2,0.6c-0.8,1.3-0.7,2.6,0.4,3.8c1.2,1.3,3.3,1.7,5.1-0.1
		c1.9-1.7,1.7-3.8,0.5-5.1c-1.1-1.2-2.6-1.3-3.8-0.7l-0.5-1.2c1.7-0.9,3.7-0.6,5.2,1C29.4,122.4,29.7,125.3,27.3,127.5z"/>
	<path d="M18.7,108.6l-8.7,4.3l-1.5-3c-1.1-2.2-0.5-4.9,2.3-6.3c2.8-1.4,5.3-0.2,6.4,2L18.7,108.6z M16.2,106.1
		c-0.8-1.6-2.5-2.4-4.7-1.3c-2.2,1.1-2.6,3-1.9,4.6l0.9,1.8l6.6-3.2L16.2,106.1z"/>
	<path d="M13.6,97.1l-9.3,2.7l-1.6-5.7l1.2-0.3l1.3,4.4L8,97.3l-1.1-4L8.1,93l1.1,4l2.8-0.8l-1.3-4.4l1.2-0.3L13.6,97.1z"/>
	<path d="M3.4,82.6c-0.7,0.2-1.6,0.9-1.4,2.2c0.1,1.1,0.9,1.8,1.8,1.7C4.6,86.4,5,86,5.1,85.1l0.1-1.5C5.4,82,6.3,81,7.7,80.8
		c1.5-0.2,3,0.9,3.2,3c0.3,2.3-1.1,3.6-2.4,3.9l-0.6-1.2c1.1-0.2,2-1.1,1.8-2.6c-0.2-1.3-0.9-1.9-1.8-1.8c-0.7,0.1-1.2,0.6-1.3,1.6
		l-0.1,1.4c-0.1,1.4-0.9,2.5-2.4,2.7c-1.5,0.2-3-1.1-3.2-2.8c-0.3-2.2,1-3.2,2-3.5L3.4,82.6z"/>
	<path d="M10.2,75.9l-9.7-0.2l0-1.4l9.7,0.2L10.2,75.9z"/>
	<path d="M11.6,62l-1.4-0.1c0.7,0.5,1.3,1.7,1.1,3.3c-0.4,2.4-2.5,4.4-5.7,3.8c-3.2-0.5-4.6-3.2-4.2-5.5c0.3-2.1,1.8-3.5,3.6-3.8
		l0.3,1.3c-1.4,0.2-2.4,1.2-2.7,2.7c-0.3,1.7,0.7,3.6,3.2,4c2.5,0.4,4.1-1,4.3-2.7c0.3-2.1-1-3.1-2-3.4L7.6,65l-1.2-0.2l0.7-4.6
		l4.7,0.8L11.6,62z"/>
	<path d="M15.4,50.2l-9.2,2.1l7.4,2.8l-0.5,1.3L4,53l0.6-1.7l8.7-1.9l-7-2.6l0.5-1.3l9.1,3.4L15.4,50.2z"/>
	<path d="M18.2,44.3l-8.3-5l3-5.1l1.1,0.6l-2.3,3.9l2.6,1.5l2.1-3.5l1.1,0.6L15.3,41l2.5,1.5l2.3-3.9l1.1,0.6L18.2,44.3z"/>
	<path d="M22.8,30.7l-0.9,1.1l3,2.6l-0.9,1l-7.4-6.3l2.4-2.8c1.2-1.4,2.9-1.4,4.1-0.4c1.1,0.9,1.3,2.3,0.6,3.6l4.6,0.9l-1,1.2
		L22.8,30.7z M22.3,29.5c0.7-0.8,0.7-1.8-0.1-2.5c-0.8-0.7-1.8-0.5-2.5,0.3l-1.3,1.6L21,31L22.3,29.5z"/>
	<path d="M34.2,18.8c0.4-0.3,1-0.2,1.3,0.2c0.3,0.4,0.2,1-0.2,1.3c-0.4,0.3-1,0.2-1.3-0.2C33.7,19.7,33.8,19.2,34.2,18.8z"/>
</g>
</svg>
